<?xml version="1.0" standalone="no"?>
<!DOCTYPE svg PUBLIC "-//W3C//DTD SVG 20010904//EN"
 "http://www.w3.org/TR/2001/REC-SVG-20010904/DTD/svg10.dtd">
<svg version="1.0" xmlns="http://www.w3.org/2000/svg"
 width="128.000000pt" height="128.000000pt" viewBox="0 0 128.000000 128.000000"
 preserveAspectRatio="xMidYMid meet">
<metadata>
Created by potrace 1.14, written by Peter Selinger 2001-2017
</metadata>
<g transform="translate(0.000000,128.000000) scale(0.100000,-0.100000)"
fill="#000000" stroke="none">
<path d="M193 828 c-139 -138 -163 -167 -163 -193 0 -26 22 -51 162 -187 174
-168 195 -181 238 -138 40 40 28 64 -100 195 -66 67 -120 126 -120 130 0 4 54
63 120 132 96 100 120 131 120 153 0 32 -40 70 -73 70 -13 0 -80 -59 -184
-162z"/>
<path d="M856 969 c-49 -39 -38 -62 98 -205 l125 -131 -125 -124 c-131 -131
-141 -150 -108 -197 11 -15 25 -22 50 -22 31 0 49 15 194 162 125 126 160 167
160 187 0 21 -35 61 -163 189 -104 103 -171 162 -184 162 -11 0 -32 -9 -47
-21z"/>
<path d="M494 730 c-32 -13 -54 -50 -54 -91 0 -31 10 -47 67 -109 37 -39 78
-76 91 -81 42 -16 85 7 161 85 62 64 71 79 71 111 0 27 -8 44 -29 66 -41 40
-88 40 -136 -2 l-36 -32 -27 26 c-31 30 -76 41 -108 27z"/>
</g>
</svg>
